<svg id="Layer_1" xmlns="http://www.w3.org/2000/svg" viewBox="0 0 54 54"><style>.st0{fill:#FFFFFF;}</style><path d="M14.3 14.3h26.5v26.5H14.3z"/><path class="st0" d="M26.1 20.3c-1.7 0-3.4.7-4.6 1.9-2.5 2.5-2.5 6.6 0 9.1 1.2 1.2 2.8 1.9 4.6 1.9s3.4-.7 4.6-1.9c1.2-1.2 1.9-2.8 1.9-4.6s-.7-3.4-1.9-4.6-2.9-1.8-4.6-1.8z"/><path class="st0" d="M27 0C12.1 0 0 12.1 0 27s12.1 27 27 27 27-12.1 27-27S41.9 0 27 0zm8.7 37.8l-4.4-4.4c-1.5 1.2-3.3 1.8-5.2 1.8-2.3 0-4.4-.9-6-2.5-3.3-3.3-3.3-8.7 0-12 1.6-1.6 3.7-2.5 6-2.5s4.4.9 6 2.5c1.6 1.6 2.5 3.7 2.5 6 0 1.9-.6 3.7-1.8 5.2l4.4 4.4-1.5 1.5z"/></svg>